<?xml version="1.0" standalone="no"?><!DOCTYPE svg PUBLIC "-//W3C//DTD SVG 1.1//EN" "http://www.w3.org/Graphics/SVG/1.1/DTD/svg11.dtd"><svg t="1533463024248" class="icon" style="" viewBox="0 0 1024 1024" version="1.1" xmlns="http://www.w3.org/2000/svg" p-id="4613" xmlns:xlink="http://www.w3.org/1999/xlink" width="64" height="64"><defs><style type="text/css"></style></defs><path d="M1001.525523 991.697833C999.921893 986.820603 999.921893 986.820603 998.660865 984.529671 997.555459 982.546169 996.292967 980.723178 994.701456 978.651787 992.49921 975.785508 989.422849 972.167385 985.357625 967.617821 978.223042 959.633206 967.82321 948.544367 954.041474 934.183828 932.494816 911.73226 910.90891 889.682651 858.479235 836.390492 806.561379 783.618574 784.781531 761.369032 763.425192 739.112133 750.035314 725.157628 739.985794 714.440231 733.331495 706.992094 730.026908 703.293279 727.652002 700.50032 726.365216 698.827064 727.221849 700.437608 727.221849 700.437608 728.57663 704.417522 730.685505 711.912202 730.685505 711.912202 721.60978 729.172705 803.853071 649.91489 851.330839 539.986079 851.330839 422.399014 851.330839 189.11448 665.529768 0 436.332529 0 207.13529 0 21.334216 189.11448 21.334216 422.399014 21.334216 655.683547 207.13529 844.798027 436.332529 844.798027 441.356833 844.798027 446.556397 844.56264 452.34799 844.116151 456.487102 843.797056 460.07982 843.452637 466.651751 842.775287 479.958964 841.403754 484.804896 841.013055 490.397411 841.013044 499.896419 841.013027 514.964658 837.645421 537.390104 831.428169 540.021128 830.698744 542.719491 829.937211 545.476371 829.146911 553.976491 826.710224 562.667674 824.106988 571.097078 821.504319 576.160111 819.941052 580.026314 818.72044 582.233099 818.011759 595.480129 813.757643 602.830749 799.378655 598.65117 785.895389 594.47159 772.412125 580.34453 764.930418 567.097499 769.184535 565.058639 769.839288 561.367324 771.004686 556.494745 772.509148 548.364793 775.01936 539.986066 777.529004 531.839497 779.864341 529.217631 780.615937 526.657745 781.338389 524.17009 782.028068 506.936485 786.805929 493.480735 789.813157 490.397317 789.813164 482.458769 789.813179 476.720612 790.275813 461.583944 791.835904 455.416153 792.471598 452.140936 792.785581 448.548837 793.062504 443.933847 793.418286 439.960834 793.598147 436.332529 793.598147 234.916774 793.598147 71.637043 627.406634 71.637043 422.399014 71.637043 217.391394 234.916774 51.199881 436.332529 51.199881 637.748284 51.199881 801.028013 217.391394 801.028013 422.399014 801.028013 525.774497 759.335638 622.307957 687.024939 691.993741 677.76962 709.561752 677.76962 709.561752 679.976466 717.625778 681.565796 722.303882 681.565796 722.303882 682.80864 724.548994 683.909922 726.510349 685.169907 728.325381 686.754106 730.385377 688.964029 733.259023 692.047025 736.884718 696.115223 741.43824 703.26113 749.436633 713.664177 760.531049 727.438046 774.885739 749.000898 797.357859 770.846224 819.67429 822.915751 872.600375 875.193624 925.738234 896.716187 947.723137 918.057202 969.960428 931.454684 983.920576 941.501239 994.632734 948.143684 1002.066574 951.439736 1005.755325 953.804423 1008.536444 955.076621 1010.192243 954.138257 1008.439892 954.138257 1008.439892 952.757317 1004.248014 950.685663 996.1709 950.685663 996.1709 960.849726 978.847981 950.241901 987.97601 948.912643 1004.128429 957.880739 1014.925424 966.848836 1025.722419 982.718257 1027.075382 993.326082 1017.947356 1003.682868 1000.331037 1003.682868 1000.331037 1001.525523 991.697833Z" p-id="4614" fill="#cdcdcd"></path></svg>